<?xml version="1.0" encoding="UTF-8" standalone="no"?>
<svg
   xmlns:dc="http://purl.org/dc/elements/1.1/"
   xmlns:cc="http://creativecommons.org/ns#"
   xmlns:rdf="http://www.w3.org/1999/02/22-rdf-syntax-ns#"
   xmlns:svg="http://www.w3.org/2000/svg"
   xmlns="http://www.w3.org/2000/svg"
   viewBox="0 0 1553.3333 372.60001"
   height="372.60001"
   width="1553.3333"
   xml:space="preserve"
   id="svg2"
   version="1.1"><metadata
     id="metadata8"><rdf:RDF><cc:Work
         rdf:about=""><dc:format>image/svg+xml</dc:format><dc:type
           rdf:resource="http://purl.org/dc/dcmitype/StillImage" /></cc:Work></rdf:RDF></metadata><defs
     id="defs6" /><g
     transform="matrix(1.3333333,0,0,-1.3333333,0,372.6)"
     id="g10"><g
       transform="scale(0.1)"
       id="g12"><path
         id="path14"
         style="fill:#d72334;fill-opacity:1;fill-rule:evenodd;stroke:none"
         d="M 2723.21,1291.74 C 2670.51,569.34 2081.05,0 1361.58,0 642.156,0 52.6953,569.34 0,1291.74 h 439.543 c 51.164,-474.752 444.523,-843.869 922.037,-843.869 477.6,0 870.84,369.117 922.13,843.869 z M 0.332031,1506.43 C 54.7578,2227.18 643.434,2794.54 1361.58,2794.54 c 718.23,0 1306.87,-567.36 1361.3,-1288.11 h -439.54 c -52.91,472.89 -445.44,840.24 -921.76,840.24 -476.271,0 -868.685,-367.35 -921.67,-840.24 H 0.332031" /><path
         id="path16"
         style="fill:#292f35;fill-opacity:1;fill-rule:evenodd;stroke:none"
         d="M 6625.05,879.859 V 1950.63 Z m 0,0 h 207.61 V 1950.63 H 6625.05 Z M 3133.68,879.27 v 995.91 h 362.84 c 170.5,0 356,-36.46 356,-253.13 0,-111.14 -67.29,-187.01 -167.69,-219.47 127.78,-19.74 213.05,-116.79 213.05,-246.21 0,-208.19 -192.39,-277.1 -365.6,-277.1 z m 376.57,412.05 h -111.2 c -6.52,121.94 23.05,179.24 104.4,185.86 65.72,5.24 134.67,28.02 134.67,108.29 0,82.99 -76.94,104 -144.32,104 h -145.75 l -0.29,-176.58 v -322.97 l 0.29,-125.07 h 192.43 c 67.37,0 142.99,29.58 142.99,116.92 0,94.18 -103.04,109.55 -173.22,109.55 z M 4002.7,879.398 v 688.432 h 207.64 v -110.47 c 47.09,83.55 105.19,127.43 196.52,127.43 23.58,0 49.81,-1.43 69.15,-7.14 v -194.1 c -28.95,8.7 -57.98,14.18 -88.49,14.18 -157.84,0 -177.18,-93.46 -177.18,-230.81 V 879.398 Z m 932.93,0 v 86.383 c -48.45,-73.672 -131.49,-103.34 -215.9,-103.34 -125.92,0 -239.48,73.59 -239.48,212.409 0,238.07 282.36,242.29 455.38,242.29 0,75.11 -60.9,123.3 -132.86,123.3 -67.74,0 -124.56,-31.27 -168.93,-82.29 l -110.71,116.12 c 76.2,73.73 186.91,110.52 296.18,110.52 242.24,0 307.38,-126.12 307.38,-355.46 V 879.398 Z m 0,301.742 h -51.22 c -63.66,0 -204.8,-5.69 -204.8,-99.2 0,-50.89 52.62,-75.11 98.22,-75.11 81.68,0 157.8,43.93 157.8,128.91 z m 835.78,313.01 -127.37,-128.87 c -30.47,38.19 -70.63,57.98 -120.48,57.98 -34.55,0 -76.03,-15.48 -76.03,-56.62 0,-101.91 350.15,-15.58 350.15,-277.57 0,-175.738 -166.22,-226.629 -310.07,-226.629 -94.14,0 -197.96,24.047 -264.35,93.469 l 125.85,143.03 c 38.76,-48.18 84.48,-75.02 146.78,-75.02 47.09,0 94.06,12.62 94.06,49.49 0,110.47 -350.11,17.09 -350.11,279.09 0,161.52 141.18,232.29 282.36,232.29 88.61,0 186.87,-22.62 249.21,-90.64 z m 536.52,-614.752 v 86.383 c -48.45,-73.672 -131.49,-103.34 -215.98,-103.34 -125.96,0 -239.4,73.59 -239.4,212.409 0,238.07 282.32,242.29 455.38,242.29 0,75.11 -60.9,123.3 -132.98,123.3 -67.74,0 -124.48,-31.27 -168.76,-82.29 l -110.75,116.12 c 76.11,73.73 186.83,110.52 296.21,110.52 242.21,0 307.27,-126.12 307.27,-355.46 V 879.398 Z m 0,301.742 h -51.21 c -63.66,0 -204.88,-5.69 -204.88,-99.2 0,-50.89 52.64,-75.11 98.29,-75.11 81.64,0 157.8,43.93 157.8,128.91 v 45.4" /><g
         transform="scale(10)"
         id="g18"><text
           id="text22"
           style="font-variant:normal;font-weight:normal;font-size:100.59799957px;font-family:Avenir;-inkscape-font-specification:Avenir-Book;writing-mode:lr-tb;fill:#292f35;fill-opacity:1;fill-rule:nonzero;stroke:none"
           transform="matrix(0.989029,0,0,-1,708.525,86.875)"><tspan
             id="tspan20"
             y="0"
             x="0 59.453068 117.09428 141.63896 210.44763 277.44534 325.73193 407.61871">VEÍCULOS</tspan></text>
</g></g></g></svg>